<mxfile host="Electron" modified="2023-05-02T13:09:02.223Z" agent="Mozilla/5.0 (Windows NT 10.0; Win64; x64) AppleWebKit/537.36 (KHTML, like Gecko) draw.io/21.2.1 Chrome/112.0.5615.87 Electron/24.1.2 Safari/537.36" etag="C8swgrGQqLf5KCVy7kNM" version="21.2.1" type="device" pages="3">
  <diagram id="C5RBs43oDa-KdzZeNtuy" name="Page-1">
    <mxGraphModel dx="1098" dy="1997" grid="1" gridSize="10" guides="1" tooltips="1" connect="1" arrows="1" fold="1" page="1" pageScale="1" pageWidth="827" pageHeight="1169" math="0" shadow="0">
      <root>
        <mxCell id="WIyWlLk6GJQsqaUBKTNV-0" />
        <mxCell id="WIyWlLk6GJQsqaUBKTNV-1" parent="WIyWlLk6GJQsqaUBKTNV-0" />
        <mxCell id="D2sk06DIlg-a_bXGIyyw-11" value="" style="edgeStyle=orthogonalEdgeStyle;rounded=0;orthogonalLoop=1;jettySize=auto;html=1;" edge="1" parent="WIyWlLk6GJQsqaUBKTNV-1" source="D2sk06DIlg-a_bXGIyyw-2" target="D2sk06DIlg-a_bXGIyyw-10">
          <mxGeometry relative="1" as="geometry" />
        </mxCell>
        <mxCell id="D2sk06DIlg-a_bXGIyyw-2" value="Objednano" style="rounded=1;whiteSpace=wrap;html=1;" vertex="1" parent="WIyWlLk6GJQsqaUBKTNV-1">
          <mxGeometry y="-70" width="120" height="60" as="geometry" />
        </mxCell>
        <mxCell id="D2sk06DIlg-a_bXGIyyw-21" style="edgeStyle=orthogonalEdgeStyle;rounded=0;orthogonalLoop=1;jettySize=auto;html=1;entryX=1;entryY=0.5;entryDx=0;entryDy=0;" edge="1" parent="WIyWlLk6GJQsqaUBKTNV-1" source="D2sk06DIlg-a_bXGIyyw-5" target="D2sk06DIlg-a_bXGIyyw-2">
          <mxGeometry relative="1" as="geometry">
            <Array as="points">
              <mxPoint x="250" y="-40" />
            </Array>
          </mxGeometry>
        </mxCell>
        <mxCell id="D2sk06DIlg-a_bXGIyyw-5" value="Upozorneni uzivatele" style="rounded=1;whiteSpace=wrap;html=1;" vertex="1" parent="WIyWlLk6GJQsqaUBKTNV-1">
          <mxGeometry x="190" y="80" width="120" height="60" as="geometry" />
        </mxCell>
        <mxCell id="D2sk06DIlg-a_bXGIyyw-16" value="" style="edgeStyle=orthogonalEdgeStyle;rounded=0;orthogonalLoop=1;jettySize=auto;html=1;" edge="1" parent="WIyWlLk6GJQsqaUBKTNV-1" source="D2sk06DIlg-a_bXGIyyw-6" target="D2sk06DIlg-a_bXGIyyw-7">
          <mxGeometry relative="1" as="geometry" />
        </mxCell>
        <mxCell id="D2sk06DIlg-a_bXGIyyw-6" value="Zabaleno" style="rounded=1;whiteSpace=wrap;html=1;" vertex="1" parent="WIyWlLk6GJQsqaUBKTNV-1">
          <mxGeometry y="330" width="120" height="60" as="geometry" />
        </mxCell>
        <mxCell id="D2sk06DIlg-a_bXGIyyw-17" value="" style="edgeStyle=orthogonalEdgeStyle;rounded=0;orthogonalLoop=1;jettySize=auto;html=1;" edge="1" parent="WIyWlLk6GJQsqaUBKTNV-1" source="D2sk06DIlg-a_bXGIyyw-7" target="D2sk06DIlg-a_bXGIyyw-8">
          <mxGeometry relative="1" as="geometry" />
        </mxCell>
        <mxCell id="D2sk06DIlg-a_bXGIyyw-7" value="Na ceste" style="rounded=1;whiteSpace=wrap;html=1;" vertex="1" parent="WIyWlLk6GJQsqaUBKTNV-1">
          <mxGeometry y="420" width="120" height="60" as="geometry" />
        </mxCell>
        <mxCell id="D2sk06DIlg-a_bXGIyyw-8" value="Doruceno" style="rounded=1;whiteSpace=wrap;html=1;" vertex="1" parent="WIyWlLk6GJQsqaUBKTNV-1">
          <mxGeometry y="510" width="120" height="60" as="geometry" />
        </mxCell>
        <mxCell id="D2sk06DIlg-a_bXGIyyw-13" value="" style="edgeStyle=orthogonalEdgeStyle;rounded=0;orthogonalLoop=1;jettySize=auto;html=1;entryX=0.5;entryY=0;entryDx=0;entryDy=0;" edge="1" parent="WIyWlLk6GJQsqaUBKTNV-1" source="D2sk06DIlg-a_bXGIyyw-10" target="D2sk06DIlg-a_bXGIyyw-6">
          <mxGeometry relative="1" as="geometry">
            <mxPoint x="60" y="240" as="targetPoint" />
          </mxGeometry>
        </mxCell>
        <mxCell id="D2sk06DIlg-a_bXGIyyw-14" value="" style="edgeStyle=orthogonalEdgeStyle;rounded=0;orthogonalLoop=1;jettySize=auto;html=1;" edge="1" parent="WIyWlLk6GJQsqaUBKTNV-1" source="D2sk06DIlg-a_bXGIyyw-10" target="D2sk06DIlg-a_bXGIyyw-5">
          <mxGeometry relative="1" as="geometry" />
        </mxCell>
        <mxCell id="D2sk06DIlg-a_bXGIyyw-10" value="" style="rhombus;whiteSpace=wrap;html=1;" vertex="1" parent="WIyWlLk6GJQsqaUBKTNV-1">
          <mxGeometry x="20" y="70" width="80" height="80" as="geometry" />
        </mxCell>
        <mxCell id="D2sk06DIlg-a_bXGIyyw-18" value="Selhani platby" style="text;html=1;strokeColor=none;fillColor=none;align=center;verticalAlign=middle;whiteSpace=wrap;rounded=0;" vertex="1" parent="WIyWlLk6GJQsqaUBKTNV-1">
          <mxGeometry x="110" y="80" width="60" height="30" as="geometry" />
        </mxCell>
        <mxCell id="D2sk06DIlg-a_bXGIyyw-20" value="Zaplaceno" style="text;html=1;strokeColor=none;fillColor=none;align=center;verticalAlign=middle;whiteSpace=wrap;rounded=0;" vertex="1" parent="WIyWlLk6GJQsqaUBKTNV-1">
          <mxGeometry x="60" y="160" width="60" height="30" as="geometry" />
        </mxCell>
        <mxCell id="zct0Iq25q_JNFBLNUg8d-1" value="" style="edgeStyle=orthogonalEdgeStyle;rounded=0;orthogonalLoop=1;jettySize=auto;html=1;" edge="1" parent="WIyWlLk6GJQsqaUBKTNV-1" source="zct0Iq25q_JNFBLNUg8d-0" target="D2sk06DIlg-a_bXGIyyw-2">
          <mxGeometry relative="1" as="geometry" />
        </mxCell>
        <mxCell id="zct0Iq25q_JNFBLNUg8d-0" value="" style="ellipse;whiteSpace=wrap;html=1;aspect=fixed;fillColor=#000000;" vertex="1" parent="WIyWlLk6GJQsqaUBKTNV-1">
          <mxGeometry x="40" y="-160" width="30" height="30" as="geometry" />
        </mxCell>
      </root>
    </mxGraphModel>
  </diagram>
  <diagram id="bbwoKjvHPB5Rb8OE0Woz" name="Page-2">
    <mxGraphModel dx="1098" dy="828" grid="1" gridSize="10" guides="1" tooltips="1" connect="1" arrows="1" fold="1" page="1" pageScale="1" pageWidth="827" pageHeight="1169" math="0" shadow="0">
      <root>
        <mxCell id="0" />
        <mxCell id="1" parent="0" />
        <mxCell id="CazngF8wbNoaP-gFMfug-13" value="" style="edgeStyle=orthogonalEdgeStyle;rounded=0;orthogonalLoop=1;jettySize=auto;html=1;" edge="1" parent="1" source="CazngF8wbNoaP-gFMfug-2" target="CazngF8wbNoaP-gFMfug-7">
          <mxGeometry relative="1" as="geometry" />
        </mxCell>
        <mxCell id="CazngF8wbNoaP-gFMfug-15" value="" style="edgeStyle=orthogonalEdgeStyle;rounded=0;orthogonalLoop=1;jettySize=auto;html=1;" edge="1" parent="1" source="CazngF8wbNoaP-gFMfug-2" target="CazngF8wbNoaP-gFMfug-12">
          <mxGeometry relative="1" as="geometry" />
        </mxCell>
        <mxCell id="CazngF8wbNoaP-gFMfug-2" value="N=&amp;lt;0" style="rhombus;whiteSpace=wrap;html=1;" vertex="1" parent="1">
          <mxGeometry x="250" y="440" width="80" height="80" as="geometry" />
        </mxCell>
        <mxCell id="CazngF8wbNoaP-gFMfug-5" value="" style="edgeStyle=orthogonalEdgeStyle;rounded=0;orthogonalLoop=1;jettySize=auto;html=1;" edge="1" parent="1" source="CazngF8wbNoaP-gFMfug-3" target="CazngF8wbNoaP-gFMfug-4">
          <mxGeometry relative="1" as="geometry" />
        </mxCell>
        <mxCell id="CazngF8wbNoaP-gFMfug-3" value="START" style="rounded=1;whiteSpace=wrap;html=1;" vertex="1" parent="1">
          <mxGeometry x="230" y="90" width="120" height="60" as="geometry" />
        </mxCell>
        <mxCell id="CazngF8wbNoaP-gFMfug-9" value="" style="edgeStyle=orthogonalEdgeStyle;rounded=0;orthogonalLoop=1;jettySize=auto;html=1;" edge="1" parent="1" source="CazngF8wbNoaP-gFMfug-4" target="CazngF8wbNoaP-gFMfug-8">
          <mxGeometry relative="1" as="geometry" />
        </mxCell>
        <mxCell id="CazngF8wbNoaP-gFMfug-4" value="X = 1&lt;br style=&quot;border-color: var(--border-color);&quot;&gt;N = 0" style="shape=parallelogram;html=1;strokeWidth=2;perimeter=parallelogramPerimeter;whiteSpace=wrap;rounded=1;arcSize=12;size=0.23;" vertex="1" parent="1">
          <mxGeometry x="230" y="220" width="120" height="60" as="geometry" />
        </mxCell>
        <mxCell id="CazngF8wbNoaP-gFMfug-6" value="KONEC" style="rounded=1;whiteSpace=wrap;html=1;" vertex="1" parent="1">
          <mxGeometry x="230" y="740" width="120" height="60" as="geometry" />
        </mxCell>
        <mxCell id="CazngF8wbNoaP-gFMfug-25" style="edgeStyle=orthogonalEdgeStyle;rounded=0;orthogonalLoop=1;jettySize=auto;html=1;entryX=1;entryY=0.5;entryDx=0;entryDy=0;" edge="1" parent="1" source="CazngF8wbNoaP-gFMfug-7" target="CazngF8wbNoaP-gFMfug-21">
          <mxGeometry relative="1" as="geometry">
            <Array as="points">
              <mxPoint x="450" y="400" />
            </Array>
          </mxGeometry>
        </mxCell>
        <mxCell id="CazngF8wbNoaP-gFMfug-7" value="X = X * N&lt;br&gt;N--" style="shape=parallelogram;html=1;strokeWidth=2;perimeter=parallelogramPerimeter;whiteSpace=wrap;rounded=1;arcSize=12;size=0.23;" vertex="1" parent="1">
          <mxGeometry x="400" y="450" width="100" height="60" as="geometry" />
        </mxCell>
        <mxCell id="CazngF8wbNoaP-gFMfug-23" value="" style="edgeStyle=orthogonalEdgeStyle;rounded=0;orthogonalLoop=1;jettySize=auto;html=1;" edge="1" parent="1" source="CazngF8wbNoaP-gFMfug-8" target="CazngF8wbNoaP-gFMfug-21">
          <mxGeometry relative="1" as="geometry" />
        </mxCell>
        <mxCell id="CazngF8wbNoaP-gFMfug-8" value="Input number N" style="shape=parallelogram;html=1;strokeWidth=2;perimeter=parallelogramPerimeter;whiteSpace=wrap;rounded=1;arcSize=12;size=0.23;" vertex="1" parent="1">
          <mxGeometry x="230" y="310" width="120" height="60" as="geometry" />
        </mxCell>
        <mxCell id="CazngF8wbNoaP-gFMfug-26" value="" style="edgeStyle=orthogonalEdgeStyle;rounded=0;orthogonalLoop=1;jettySize=auto;html=1;" edge="1" parent="1" source="CazngF8wbNoaP-gFMfug-12" target="CazngF8wbNoaP-gFMfug-6">
          <mxGeometry relative="1" as="geometry" />
        </mxCell>
        <mxCell id="CazngF8wbNoaP-gFMfug-12" value="Output X" style="shape=parallelogram;html=1;strokeWidth=2;perimeter=parallelogramPerimeter;whiteSpace=wrap;rounded=1;arcSize=12;size=0.23;" vertex="1" parent="1">
          <mxGeometry x="240" y="610" width="100" height="60" as="geometry" />
        </mxCell>
        <mxCell id="CazngF8wbNoaP-gFMfug-14" value="NE" style="text;html=1;strokeColor=none;fillColor=none;align=center;verticalAlign=middle;whiteSpace=wrap;rounded=0;" vertex="1" parent="1">
          <mxGeometry x="330" y="460" width="60" height="30" as="geometry" />
        </mxCell>
        <mxCell id="CazngF8wbNoaP-gFMfug-16" value="ANO" style="text;html=1;strokeColor=none;fillColor=none;align=center;verticalAlign=middle;whiteSpace=wrap;rounded=0;" vertex="1" parent="1">
          <mxGeometry x="280" y="540" width="60" height="30" as="geometry" />
        </mxCell>
        <mxCell id="CazngF8wbNoaP-gFMfug-24" value="" style="edgeStyle=orthogonalEdgeStyle;rounded=0;orthogonalLoop=1;jettySize=auto;html=1;" edge="1" parent="1" source="CazngF8wbNoaP-gFMfug-21" target="CazngF8wbNoaP-gFMfug-2">
          <mxGeometry relative="1" as="geometry" />
        </mxCell>
        <mxCell id="CazngF8wbNoaP-gFMfug-21" value="" style="ellipse;whiteSpace=wrap;html=1;aspect=fixed;fillColor=#000000;" vertex="1" parent="1">
          <mxGeometry x="280" y="390" width="20" height="20" as="geometry" />
        </mxCell>
        <mxCell id="CazngF8wbNoaP-gFMfug-22" style="edgeStyle=orthogonalEdgeStyle;rounded=0;orthogonalLoop=1;jettySize=auto;html=1;exitX=1;exitY=1;exitDx=0;exitDy=0;entryX=0.5;entryY=1;entryDx=0;entryDy=0;" edge="1" parent="1" source="CazngF8wbNoaP-gFMfug-21" target="CazngF8wbNoaP-gFMfug-21">
          <mxGeometry relative="1" as="geometry" />
        </mxCell>
      </root>
    </mxGraphModel>
  </diagram>
  <diagram id="GTA0qYAq0o0OK5HZOMSB" name="Page-3">
    <mxGraphModel dx="1098" dy="828" grid="1" gridSize="10" guides="1" tooltips="1" connect="1" arrows="1" fold="1" page="1" pageScale="1" pageWidth="827" pageHeight="1169" math="0" shadow="0">
      <root>
        <mxCell id="0" />
        <mxCell id="1" parent="0" />
        <mxCell id="xLwy4n_jrBFbHZGfiPAE-13" style="edgeStyle=orthogonalEdgeStyle;rounded=0;orthogonalLoop=1;jettySize=auto;html=1;entryX=0;entryY=0.5;entryDx=0;entryDy=0;startArrow=classic;startFill=1;" edge="1" parent="1" source="xLwy4n_jrBFbHZGfiPAE-1" target="xLwy4n_jrBFbHZGfiPAE-2">
          <mxGeometry relative="1" as="geometry" />
        </mxCell>
        <mxCell id="xLwy4n_jrBFbHZGfiPAE-1" value="Zajisteno" style="rounded=1;whiteSpace=wrap;html=1;" vertex="1" parent="1">
          <mxGeometry x="30" y="180" width="120" height="60" as="geometry" />
        </mxCell>
        <mxCell id="xLwy4n_jrBFbHZGfiPAE-34" value="" style="edgeStyle=orthogonalEdgeStyle;rounded=0;orthogonalLoop=1;jettySize=auto;html=1;" edge="1" parent="1" source="xLwy4n_jrBFbHZGfiPAE-2" target="xLwy4n_jrBFbHZGfiPAE-3">
          <mxGeometry relative="1" as="geometry" />
        </mxCell>
        <mxCell id="xLwy4n_jrBFbHZGfiPAE-2" value="Nezajisteno" style="rounded=1;whiteSpace=wrap;html=1;" vertex="1" parent="1">
          <mxGeometry x="360" y="180" width="120" height="60" as="geometry" />
        </mxCell>
        <mxCell id="xLwy4n_jrBFbHZGfiPAE-3" value="Odpocet" style="rounded=1;whiteSpace=wrap;html=1;" vertex="1" parent="1">
          <mxGeometry x="360" y="270" width="120" height="60" as="geometry" />
        </mxCell>
        <mxCell id="xLwy4n_jrBFbHZGfiPAE-38" style="edgeStyle=orthogonalEdgeStyle;rounded=0;orthogonalLoop=1;jettySize=auto;html=1;endArrow=diamond;endFill=0;startSize=20;endSize=20;" edge="1" parent="1" source="xLwy4n_jrBFbHZGfiPAE-4">
          <mxGeometry relative="1" as="geometry">
            <mxPoint x="420" y="450" as="targetPoint" />
          </mxGeometry>
        </mxCell>
        <mxCell id="xLwy4n_jrBFbHZGfiPAE-4" value="Zazeh" style="rounded=1;whiteSpace=wrap;html=1;" vertex="1" parent="1">
          <mxGeometry x="360" y="350" width="120" height="60" as="geometry" />
        </mxCell>
        <mxCell id="xLwy4n_jrBFbHZGfiPAE-35" style="edgeStyle=orthogonalEdgeStyle;rounded=0;orthogonalLoop=1;jettySize=auto;html=1;entryX=1;entryY=0.5;entryDx=0;entryDy=0;" edge="1" parent="1" source="xLwy4n_jrBFbHZGfiPAE-5" target="xLwy4n_jrBFbHZGfiPAE-2">
          <mxGeometry relative="1" as="geometry">
            <Array as="points">
              <mxPoint x="590" y="210" />
            </Array>
          </mxGeometry>
        </mxCell>
        <mxCell id="xLwy4n_jrBFbHZGfiPAE-5" value="Preruseni" style="rounded=1;whiteSpace=wrap;html=1;" vertex="1" parent="1">
          <mxGeometry x="530" y="410" width="120" height="60" as="geometry" />
        </mxCell>
        <mxCell id="xLwy4n_jrBFbHZGfiPAE-24" value="" style="edgeStyle=orthogonalEdgeStyle;rounded=0;orthogonalLoop=1;jettySize=auto;html=1;" edge="1" parent="1" source="xLwy4n_jrBFbHZGfiPAE-6" target="xLwy4n_jrBFbHZGfiPAE-7">
          <mxGeometry relative="1" as="geometry" />
        </mxCell>
        <mxCell id="xLwy4n_jrBFbHZGfiPAE-6" value="Vzlet s pohonem" style="rounded=1;whiteSpace=wrap;html=1;" vertex="1" parent="1">
          <mxGeometry x="30" y="510" width="120" height="60" as="geometry" />
        </mxCell>
        <mxCell id="xLwy4n_jrBFbHZGfiPAE-26" value="" style="edgeStyle=orthogonalEdgeStyle;rounded=0;orthogonalLoop=1;jettySize=auto;html=1;" edge="1" parent="1" source="xLwy4n_jrBFbHZGfiPAE-7" target="xLwy4n_jrBFbHZGfiPAE-8">
          <mxGeometry relative="1" as="geometry" />
        </mxCell>
        <mxCell id="xLwy4n_jrBFbHZGfiPAE-7" value="Vzlet bez pohonu" style="rounded=1;whiteSpace=wrap;html=1;" vertex="1" parent="1">
          <mxGeometry x="190" y="510" width="120" height="60" as="geometry" />
        </mxCell>
        <mxCell id="xLwy4n_jrBFbHZGfiPAE-27" value="" style="edgeStyle=orthogonalEdgeStyle;rounded=0;orthogonalLoop=1;jettySize=auto;html=1;" edge="1" parent="1" source="xLwy4n_jrBFbHZGfiPAE-8" target="xLwy4n_jrBFbHZGfiPAE-9">
          <mxGeometry relative="1" as="geometry" />
        </mxCell>
        <mxCell id="xLwy4n_jrBFbHZGfiPAE-8" value="Pad" style="rounded=1;whiteSpace=wrap;html=1;" vertex="1" parent="1">
          <mxGeometry x="360" y="510" width="120" height="60" as="geometry" />
        </mxCell>
        <mxCell id="xLwy4n_jrBFbHZGfiPAE-28" value="" style="edgeStyle=orthogonalEdgeStyle;rounded=0;orthogonalLoop=1;jettySize=auto;html=1;" edge="1" parent="1" source="xLwy4n_jrBFbHZGfiPAE-9" target="xLwy4n_jrBFbHZGfiPAE-10">
          <mxGeometry relative="1" as="geometry" />
        </mxCell>
        <mxCell id="xLwy4n_jrBFbHZGfiPAE-9" value="Pad s vysunutym padakem" style="rounded=1;whiteSpace=wrap;html=1;" vertex="1" parent="1">
          <mxGeometry x="530" y="510" width="120" height="60" as="geometry" />
        </mxCell>
        <mxCell id="xLwy4n_jrBFbHZGfiPAE-33" style="edgeStyle=orthogonalEdgeStyle;rounded=0;orthogonalLoop=1;jettySize=auto;html=1;entryX=0.5;entryY=0;entryDx=0;entryDy=0;" edge="1" parent="1" source="xLwy4n_jrBFbHZGfiPAE-10" target="xLwy4n_jrBFbHZGfiPAE-29">
          <mxGeometry relative="1" as="geometry" />
        </mxCell>
        <mxCell id="xLwy4n_jrBFbHZGfiPAE-10" value="Dopadnuti" style="rounded=1;whiteSpace=wrap;html=1;" vertex="1" parent="1">
          <mxGeometry x="700" y="510" width="120" height="60" as="geometry" />
        </mxCell>
        <mxCell id="xLwy4n_jrBFbHZGfiPAE-18" value="" style="endArrow=classic;html=1;rounded=0;entryX=0.5;entryY=0;entryDx=0;entryDy=0;exitX=0.5;exitY=1;exitDx=0;exitDy=0;" edge="1" parent="1" source="xLwy4n_jrBFbHZGfiPAE-3" target="xLwy4n_jrBFbHZGfiPAE-4">
          <mxGeometry width="50" height="50" relative="1" as="geometry">
            <mxPoint x="420" y="400" as="sourcePoint" />
            <mxPoint x="440" y="420" as="targetPoint" />
          </mxGeometry>
        </mxCell>
        <mxCell id="xLwy4n_jrBFbHZGfiPAE-29" value="" style="ellipse;whiteSpace=wrap;html=1;aspect=fixed;" vertex="1" parent="1">
          <mxGeometry x="740" y="610" width="40" height="40" as="geometry" />
        </mxCell>
        <mxCell id="xLwy4n_jrBFbHZGfiPAE-30" value="" style="ellipse;whiteSpace=wrap;html=1;aspect=fixed;fillColor=#000000;" vertex="1" parent="1">
          <mxGeometry x="750" y="620" width="20" height="20" as="geometry" />
        </mxCell>
        <mxCell id="xLwy4n_jrBFbHZGfiPAE-32" value="" style="edgeStyle=orthogonalEdgeStyle;rounded=0;orthogonalLoop=1;jettySize=auto;html=1;" edge="1" parent="1" source="xLwy4n_jrBFbHZGfiPAE-31" target="xLwy4n_jrBFbHZGfiPAE-1">
          <mxGeometry relative="1" as="geometry" />
        </mxCell>
        <mxCell id="xLwy4n_jrBFbHZGfiPAE-31" value="" style="ellipse;whiteSpace=wrap;html=1;aspect=fixed;" vertex="1" parent="1">
          <mxGeometry x="70" y="100" width="40" height="40" as="geometry" />
        </mxCell>
        <mxCell id="xLwy4n_jrBFbHZGfiPAE-39" value="" style="endArrow=classic;html=1;rounded=0;entryX=0;entryY=0.5;entryDx=0;entryDy=0;" edge="1" parent="1" target="xLwy4n_jrBFbHZGfiPAE-5">
          <mxGeometry width="50" height="50" relative="1" as="geometry">
            <mxPoint x="430" y="440" as="sourcePoint" />
            <mxPoint x="440" y="410" as="targetPoint" />
          </mxGeometry>
        </mxCell>
        <mxCell id="xLwy4n_jrBFbHZGfiPAE-40" value="" style="endArrow=classic;html=1;rounded=0;entryX=0.425;entryY=0.017;entryDx=0;entryDy=0;entryPerimeter=0;" edge="1" parent="1" target="xLwy4n_jrBFbHZGfiPAE-6">
          <mxGeometry width="50" height="50" relative="1" as="geometry">
            <mxPoint x="410" y="440" as="sourcePoint" />
            <mxPoint x="80" y="440" as="targetPoint" />
            <Array as="points">
              <mxPoint x="81" y="440" />
            </Array>
          </mxGeometry>
        </mxCell>
        <mxCell id="xLwy4n_jrBFbHZGfiPAE-41" value="[a=0]" style="text;html=1;strokeColor=none;fillColor=none;align=center;verticalAlign=middle;whiteSpace=wrap;rounded=0;" vertex="1" parent="1">
          <mxGeometry x="430" y="420" width="60" height="30" as="geometry" />
        </mxCell>
        <mxCell id="xLwy4n_jrBFbHZGfiPAE-42" value="[a&amp;gt;0]" style="text;html=1;strokeColor=none;fillColor=none;align=center;verticalAlign=middle;whiteSpace=wrap;rounded=0;" vertex="1" parent="1">
          <mxGeometry x="320" y="420" width="60" height="30" as="geometry" />
        </mxCell>
        <mxCell id="xLwy4n_jrBFbHZGfiPAE-44" value="[v=&amp;lt;-2]" style="text;html=1;strokeColor=none;fillColor=none;align=center;verticalAlign=middle;whiteSpace=wrap;rounded=0;" vertex="1" parent="1">
          <mxGeometry x="470" y="520" width="60" height="30" as="geometry" />
        </mxCell>
        <mxCell id="xLwy4n_jrBFbHZGfiPAE-45" value="[v=0]" style="text;html=1;strokeColor=none;fillColor=none;align=center;verticalAlign=middle;whiteSpace=wrap;rounded=0;" vertex="1" parent="1">
          <mxGeometry x="640" y="520" width="60" height="30" as="geometry" />
        </mxCell>
        <mxCell id="xLwy4n_jrBFbHZGfiPAE-46" value="[Stisk tlacitka]" style="text;html=1;strokeColor=none;fillColor=none;align=center;verticalAlign=middle;whiteSpace=wrap;rounded=0;" vertex="1" parent="1">
          <mxGeometry x="200" y="190" width="80" height="30" as="geometry" />
        </mxCell>
        <mxCell id="xLwy4n_jrBFbHZGfiPAE-48" value="[Otoceni spinace]" style="text;html=1;strokeColor=none;fillColor=none;align=center;verticalAlign=middle;whiteSpace=wrap;rounded=0;" vertex="1" parent="1">
          <mxGeometry x="430" y="240" width="100" height="30" as="geometry" />
        </mxCell>
        <mxCell id="3CoBGM-3GoyzGEPTVo1u-1" value="[a=0]" style="text;html=1;strokeColor=none;fillColor=none;align=center;verticalAlign=middle;whiteSpace=wrap;rounded=0;" vertex="1" parent="1">
          <mxGeometry x="140" y="520" width="60" height="30" as="geometry" />
        </mxCell>
        <mxCell id="3CoBGM-3GoyzGEPTVo1u-2" value="[v=0]" style="text;html=1;strokeColor=none;fillColor=none;align=center;verticalAlign=middle;whiteSpace=wrap;rounded=0;" vertex="1" parent="1">
          <mxGeometry x="300" y="520" width="60" height="30" as="geometry" />
        </mxCell>
      </root>
    </mxGraphModel>
  </diagram>
</mxfile>
